<?xml version="1.0" encoding="utf-8"?>
<!-- Generator: Adobe Illustrator 19.0.0, SVG Export Plug-In . SVG Version: 6.00 Build 0)  -->
<svg version="1.1" id="Layer_1" xmlns="http://www.w3.org/2000/svg" xmlns:xlink="http://www.w3.org/1999/xlink" x="0px" y="0px"
	 viewBox="-397 212 156 162.3" style="enable-background:new -397 212 156 162.3;" xml:space="preserve" fill="#c9004b">
<path d="M-323,212c2.7,0,5.3,0,8,0c0,12.7,0,1.4,0,14c-2.7,0-5.3,0-8,0C-323,213.4-323,224.7-323,212z"/>
<path d="M-377.9,231.2c1.9-1.9,3.7-3.8,5.6-5.8c9.1,8.8,1,1,10.1,9.7c-1.9,1.9-3.7,3.8-5.6,5.8C-376.9,232.2-368.7,240-377.9,231.2z
	"/>
<path d="M-397,287.9c0-2.7,0-5.3,0-8c12.7,0,1.4,0,14,0c0,2.7,0,5.3,0,8C-395.6,287.9-384.3,287.9-397,287.9z"/>
<path d="M-265.7,225.5c1.9,1.9,3.7,3.8,5.6,5.7c-9,8.9-1,1-9.9,9.9c-1.9-1.9-3.7-3.8-5.6-5.7C-266.7,226.5-274.8,234.5-265.7,225.5z
	"/>
<path d="M-241,280.1c0,2.7,0,5.3,0,8c-12.7,0-1.4,0-14,0c0-2.7,0-5.3,0-8C-242.4,280.1-253.7,280.1-241,280.1z"/>
<g>
	<path d="M-355.3,247.9c12.5-11.7,31-16.6,47.8-12.8c22.8,4.6,41.1,25.6,42.3,48.9c0.6,17.6-0.1,35,0.4,52.6c3.5,1.8,7.4,3.9,8.4,8
		c1.3,5.2,0.7,10.5,0.8,15.8c0.1,4.3-1.1,9-4.7,11.6c-2.9,2.5-6.9,2.3-10.5,2.3c-33.2-0.1-66.4,0.1-99.6-0.1
		c-6.2,0.2-11.7-5.4-11.6-11.5c-0.1-5.5-0.4-11,0.2-16.5c0.6-4.8,5-7.6,8.9-9.6c0.5-17.1-0.1-34.3,0.2-51.4
		C-372.3,271.1-365.7,257.3-355.3,247.9z M-348.6,254.5c-9.4,8.3-14.9,20.6-14.9,33.1c0,16.4,0,32.8,0,49.2c3.2,0,6.2,0,9.4,0
		c0-17.2,0-34.4,0-51.5c3.2,0,6.2,0,9.4,0c0,17.2,0,34.3,0,51.5c23.4,0,46.8,0,70.2,0c0-16,0-32,0-48c0.5-16-8.3-31.8-22.4-39.7
		C-312.9,239.6-334.9,241.7-348.6,254.5z M-372.5,346.5c-0.5,6.1-0.5,12.1,0,18.1c3.9,0.2,7.6,0.4,11.5,0.4
		c32-0.2,63.8,0.4,95.7-0.4c0.5-6.1,0.5-12.1,0-18.1c-9.2-0.6-18.5-0.1-27.9-0.4C-319.7,346.4-346.2,345.8-372.5,346.5z"/>
</g>
</svg>
